<svg xmlns="http://www.w3.org/2000/svg" viewBox="0 0 1600 1600" width="1600" height="1600" role="img" aria-label="Studio Suzu — selo 鈴">
  <title>Studio Suzu — selo com ideograma</title>
  <circle cx="800" cy="800" r="774" fill="none" stroke="#463C34" stroke-width="52"/>
  <g transform="translate(800 800) scale(0.91880 -0.91880) translate(-500 -310)" fill="#463C34"><path d="M245 424H148Q104 368 47 310L34 322Q103 413 169.0 544.5Q235 676 264 778L342 736Q355 730 355.0 723.5Q355 717 339.5 713.5Q324 710 304 677Q390 656 433.0 628.5Q476 601 476 562Q476 541 467.5 526.5Q459 512 446.5 512.0Q434 512 415.0 542.5Q396 573 363.5 604.5Q331 636 295 658Q232 538 168 451H345L393 507L449 440Q454 434 454.0 429.0Q454 424 441 424H304V290H362L412 349L471 279Q477 272 477.0 267.0Q477 262 463 262H304V77Q362 165 387 236L450 192Q457 187 457.0 182.5Q457 178 445.5 174.5Q434 171 413 150Q371 104 304 40V4L466 35L470 20L261 -51Q131 -96 117 -113Q113 -118 107.5 -118.0Q102 -118 95 -106L56 -44L245 -7V262H167Q125 262 99 251L62 295Q109 290 146 290H245ZM705 688Q742 580 812.0 503.0Q882 426 966 406V389Q903 385 887 357Q882 346 876 346Q859 346 791.0 426.5Q723 507 688 657Q586 440 452 321L438 332Q598 560 656 769L734 726Q745 720 745.0 713.5Q745 707 729.5 703.0Q714 699 705 688ZM624 467Q730 413 730 368Q730 337 717.5 320.5Q705 304 687.5 304.0Q670 304 665.0 339.0Q660 374 647.0 399.5Q634 425 611 456ZM676 7 777 209H583Q541 209 515 198L478 242Q518 237 561 237H770L812 285L876 227Q887 218 887.0 211.5Q887 205 871.0 201.5Q855 198 839.5 184.5Q824 171 791.0 128.5Q758 86 695 -6Q760 -52 760 -92Q760 -116 746.0 -137.0Q732 -158 718 -158Q711 -158 706.5 -151.0Q702 -144 692 -125Q648 -35 535 64L544 75Q627 39 676 7ZM106 221Q151 190 175.5 156.5Q200 123 200.0 99.5Q200 76 185.0 56.5Q170 37 154.0 37.0Q138 37 138 77Q138 141 94 212Z"/></g>
</svg>
