<svg xmlns="http://www.w3.org/2000/svg" viewBox="0 0 1600 1600" width="1600" height="1600" role="img" aria-label="Studio Suzu — selo">
  <title>Studio Suzu — selo</title>
  <defs><path id="su" d="M77.9990234375 130.9993896484375 36.2003173828125 107.2003173828125Q45.60009765625 78.2001953125 67.4998779296875 51.20013427734375Q89.399658203125 24.2000732421875 124.799560546875 7.10003662109375Q160.199462890625 -10.0 208.1995849609375 -10.0Q274.3992919921875 -10.0 315.4991455078125 27.599853515625Q356.5989990234375 65.19970703125 356.5989990234375 124.7996826171875Q356.5989990234375 163.799560546875 337.4990234375 188.99951171875Q318.3990478515625 214.199462890625 286.79913330078125 231.29937744140625Q255.19921875 248.3992919921875 217.9993896484375 261.59912109375Q189.59912109375 271.59912109375 164.99896240234375 282.79913330078125Q140.3988037109375 293.9991455078125 125.19873046875 311.39935302734375Q109.9986572265625 328.799560546875 109.9986572265625 356.0001220703125Q109.9986572265625 389.4007568359375 133.5989990234375 406.0010986328125Q157.1993408203125 422.6014404296875 190.599853515625 422.6014404296875Q236.6004638671875 422.6014404296875 265.70050048828125 401.00115966796875Q294.800537109375 379.40087890625 311.400390625 349.400634765625L353.799072265625 375.19970703125Q341.7991943359375 401.19970703125 319.79937744140625 422.19976806640625Q297.799560546875 443.1998291015625 266.899658203125 456.19989013671875Q235.999755859375 469.199951171875 196.599609375 469.199951171875Q161.19970703125 469.199951171875 129.69989013671875 456.39996337890625Q98.2000732421875 443.5999755859375 78.7001953125 417.800048828125Q59.2003173828125 392.0001220703125 59.2003173828125 353.000244140625Q59.2003173828125 311.8001708984375 78.500244140625 286.30023193359375Q97.8001708984375 260.80029296875 127.900146484375 245.70037841796875Q158.0001220703125 230.6004638671875 190.4002685546875 219.00048828125Q220.200439453125 209.00048828125 246.00054931640625 196.50042724609375Q271.8006591796875 184.0003662109375 287.90069580078125 165.500244140625Q304.000732421875 147.0001220703125 304.000732421875 119.39990234375Q304.000732421875 80.7991943359375 278.30035400390625 59.298828125Q252.5999755859375 37.7984619140625 210.5994873046875 37.7984619140625Q174.9990234375 37.7984619140625 148.6988525390625 50.6986083984375Q122.398681640625 63.5987548828125 105.19873046875 84.99896240234375Q87.998779296875 106.399169921875 77.9990234375 130.9993896484375ZM713.99853515625 167.999267578125V460.0H662.000244140625V161.99951171875Q662.000244140625 83.19970703125 700.199951171875 36.599853515625Q738.399658203125 -10.0 809.9996337890625 -10.0Q861.5999755859375 -10.0 899.8002319335938 18.1004638671875Q938.00048828125 46.200927734375 957.000244140625 96.00146484375V0.0H1008.99853515625V460.0H957.000244140625V180.0Q957.000244140625 140.7996826171875 939.7000732421875 108.79931640625Q922.39990234375 76.7989501953125 891.899658203125 58.09869384765625Q861.3994140625 39.3984375 821.9991455078125 39.3984375Q766.398681640625 39.3984375 740.1986083984375 73.59869384765625Q713.99853515625 107.7989501953125 713.99853515625 167.999267578125Z"/><path id="zu" d="M331.6019287109375 411.0015869140625 17.0001220703125 0.0H418.9996337890625V48.9984130859375H112.3970947265625L426.9989013671875 460.0H42.9998779296875V411.0015869140625ZM758.99853515625 167.999267578125V460.0H707.000244140625V161.99951171875Q707.000244140625 83.19970703125 745.199951171875 36.599853515625Q783.399658203125 -10.0 854.9996337890625 -10.0Q906.5999755859375 -10.0 944.8002319335938 18.1004638671875Q983.00048828125 46.200927734375 1002.000244140625 96.00146484375V0.0H1053.99853515625V460.0H1002.000244140625V180.0Q1002.000244140625 140.7996826171875 984.7000732421875 108.79931640625Q967.39990234375 76.7989501953125 936.899658203125 58.09869384765625Q906.3994140625 39.3984375 866.9991455078125 39.3984375Q811.398681640625 39.3984375 785.1986083984375 73.59869384765625Q758.99853515625 107.7989501953125 758.99853515625 167.999267578125Z"/></defs>
  <circle cx="800" cy="800" r="774" fill="none" stroke="#463C34" stroke-width="52"/>
  <g fill="#463C34" transform="translate(800 800) scale(.74) translate(-800 -800)">
    <use href="#su" transform="translate(277.4 734.6) scale(1 -1)"/>
    <use href="#zu" transform="translate(264.5 1324.6) scale(1 -1)"/>
  </g>
</svg>
