<svg xmlns="http://www.w3.org/2000/svg" viewBox="0 0 4114 659.2" width="4114" height="659.2" role="img" aria-label="suzu 鈴">
  <title>Studio Suzu — inline suzu · 鈴</title>
  <g transform="translate(53.8 559.2) scale(1 -1)" fill="#463C34"><path d="M77.9990234375 130.9993896484375 36.2003173828125 107.2003173828125Q45.60009765625 78.2001953125 67.4998779296875 51.20013427734375Q89.399658203125 24.2000732421875 124.799560546875 7.10003662109375Q160.199462890625 -10.0 208.1995849609375 -10.0Q274.3992919921875 -10.0 315.4991455078125 27.599853515625Q356.5989990234375 65.19970703125 356.5989990234375 124.7996826171875Q356.5989990234375 163.799560546875 337.4990234375 188.99951171875Q318.3990478515625 214.199462890625 286.79913330078125 231.29937744140625Q255.19921875 248.3992919921875 217.9993896484375 261.59912109375Q189.59912109375 271.59912109375 164.99896240234375 282.79913330078125Q140.3988037109375 293.9991455078125 125.19873046875 311.39935302734375Q109.9986572265625 328.799560546875 109.9986572265625 356.0001220703125Q109.9986572265625 389.4007568359375 133.5989990234375 406.0010986328125Q157.1993408203125 422.6014404296875 190.599853515625 422.6014404296875Q236.6004638671875 422.6014404296875 265.70050048828125 401.00115966796875Q294.800537109375 379.40087890625 311.400390625 349.400634765625L353.799072265625 375.19970703125Q341.7991943359375 401.19970703125 319.79937744140625 422.19976806640625Q297.799560546875 443.1998291015625 266.899658203125 456.19989013671875Q235.999755859375 469.199951171875 196.599609375 469.199951171875Q161.19970703125 469.199951171875 129.69989013671875 456.39996337890625Q98.2000732421875 443.5999755859375 78.7001953125 417.800048828125Q59.2003173828125 392.0001220703125 59.2003173828125 353.000244140625Q59.2003173828125 311.8001708984375 78.500244140625 286.30023193359375Q97.8001708984375 260.80029296875 127.900146484375 245.70037841796875Q158.0001220703125 230.6004638671875 190.4002685546875 219.00048828125Q220.200439453125 209.00048828125 246.00054931640625 196.50042724609375Q271.8006591796875 184.0003662109375 287.90069580078125 165.500244140625Q304.000732421875 147.0001220703125 304.000732421875 119.39990234375Q304.000732421875 80.7991943359375 278.30035400390625 59.298828125Q252.5999755859375 37.7984619140625 210.5994873046875 37.7984619140625Q174.9990234375 37.7984619140625 148.6988525390625 50.6986083984375Q122.398681640625 63.5987548828125 105.19873046875 84.99896240234375Q87.998779296875 106.399169921875 77.9990234375 130.9993896484375ZM813.99853515625 167.999267578125V460.0H762.000244140625V161.99951171875Q762.000244140625 83.19970703125 800.199951171875 36.599853515625Q838.399658203125 -10.0 909.9996337890625 -10.0Q961.5999755859375 -10.0 999.8002319335938 18.1004638671875Q1038.00048828125 46.200927734375 1057.000244140625 96.00146484375V0.0H1108.99853515625V460.0H1057.000244140625V180.0Q1057.000244140625 140.7996826171875 1039.7000732421875 108.79931640625Q1022.39990234375 76.7989501953125 991.899658203125 58.09869384765625Q961.3994140625 39.3984375 921.9991455078125 39.3984375Q866.398681640625 39.3984375 840.1986083984375 73.59869384765625Q813.99853515625 107.7989501953125 813.99853515625 167.999267578125ZM1799.6019287109375 411.0015869140625 1485.0001220703125 0.0H1886.9996337890625V48.9984130859375H1580.3970947265625L1894.9989013671875 460.0H1510.9998779296875V411.0015869140625ZM2326.99853515625 167.999267578125V460.0H2275.000244140625V161.99951171875Q2275.000244140625 83.19970703125 2313.199951171875 36.599853515625Q2351.399658203125 -10.0 2422.9996337890625 -10.0Q2474.5999755859375 -10.0 2512.8002319335938 18.1004638671875Q2551.00048828125 46.200927734375 2570.000244140625 96.00146484375V0.0H2621.99853515625V460.0H2570.000244140625V180.0Q2570.000244140625 140.7996826171875 2552.7000732421875 108.79931640625Q2535.39990234375 76.7989501953125 2504.899658203125 58.09869384765625Q2474.3994140625 39.3984375 2434.9991455078125 39.3984375Q2379.398681640625 39.3984375 2353.1986083984375 73.59869384765625Q2326.99853515625 107.7989501953125 2326.99853515625 167.999267578125Z"/></g>
  <circle cx="3115.8" cy="330" r="62" fill="#E89A85"/>
  <g transform="translate(3789.8 330.0) scale(0.50214 -0.50214) translate(-500 -310)" fill="#463C34"><path d="M245 424H148Q104 368 47 310L34 322Q103 413 169.0 544.5Q235 676 264 778L342 736Q355 730 355.0 723.5Q355 717 339.5 713.5Q324 710 304 677Q390 656 433.0 628.5Q476 601 476 562Q476 541 467.5 526.5Q459 512 446.5 512.0Q434 512 415.0 542.5Q396 573 363.5 604.5Q331 636 295 658Q232 538 168 451H345L393 507L449 440Q454 434 454.0 429.0Q454 424 441 424H304V290H362L412 349L471 279Q477 272 477.0 267.0Q477 262 463 262H304V77Q362 165 387 236L450 192Q457 187 457.0 182.5Q457 178 445.5 174.5Q434 171 413 150Q371 104 304 40V4L466 35L470 20L261 -51Q131 -96 117 -113Q113 -118 107.5 -118.0Q102 -118 95 -106L56 -44L245 -7V262H167Q125 262 99 251L62 295Q109 290 146 290H245ZM705 688Q742 580 812.0 503.0Q882 426 966 406V389Q903 385 887 357Q882 346 876 346Q859 346 791.0 426.5Q723 507 688 657Q586 440 452 321L438 332Q598 560 656 769L734 726Q745 720 745.0 713.5Q745 707 729.5 703.0Q714 699 705 688ZM624 467Q730 413 730 368Q730 337 717.5 320.5Q705 304 687.5 304.0Q670 304 665.0 339.0Q660 374 647.0 399.5Q634 425 611 456ZM676 7 777 209H583Q541 209 515 198L478 242Q518 237 561 237H770L812 285L876 227Q887 218 887.0 211.5Q887 205 871.0 201.5Q855 198 839.5 184.5Q824 171 791.0 128.5Q758 86 695 -6Q760 -52 760 -92Q760 -116 746.0 -137.0Q732 -158 718 -158Q711 -158 706.5 -151.0Q702 -144 692 -125Q648 -35 535 64L544 75Q627 39 676 7ZM106 221Q151 190 175.5 156.5Q200 123 200.0 99.5Q200 76 185.0 56.5Q170 37 154.0 37.0Q138 37 138 77Q138 141 94 212Z"/></g>
</svg>
